<?xml version="1.0" standalone="no"?><!DOCTYPE svg PUBLIC "-//W3C//DTD SVG 1.1//EN" "http://www.w3.org/Graphics/SVG/1.1/DTD/svg11.dtd"><svg t="1585127766968" class="icon" viewBox="0 0 1228 1024" version="1.1" xmlns="http://www.w3.org/2000/svg" p-id="2551" xmlns:xlink="http://www.w3.org/1999/xlink" width="1228" height="1024"><defs><style type="text/css"></style></defs><path d="M947.200863 819.196546H281.60259A205.010692 205.010692 0 0 1 76.799137 614.410362V204.803454A205.010692 205.010692 0 0 1 281.60259 0h665.598273a205.010692 205.010692 0 0 1 204.803454 204.803454v409.606908a205.010692 205.010692 0 0 1-204.803454 204.786184zM281.60259 102.393092a102.513981 102.513981 0 0 0-102.393092 102.393092v409.624178a102.513981 102.513981 0 0 0 102.393092 102.393092h665.598273a102.513981 102.513981 0 0 0 102.393093-102.393092V204.803454a102.513981 102.513981 0 0 0-102.393093-102.393092z" fill="#bfcbd9" p-id="2552"></path><path d="M1075.205181 1024H153.598273a153.598273 153.598273 0 0 1 0-307.196546h921.606908a153.598273 153.598273 0 1 1 0 307.196546zM153.598273 819.196546a51.205181 51.205181 0 0 0 0 102.393092h921.606908a51.205181 51.205181 0 1 0 0-102.393092z" fill="#bfcbd9" p-id="2553"></path></svg>